<?xml version="1.0" encoding="UTF-8" standalone="no"?>
<svg
   width="414.482092pt"
   height="395.969687pt"
   viewBox="0 0 414.482092 395.969687"
   version="1.1"
   id="svg141"
   sodipodi:docname="perfil_fresa_vectorial.svg"
   inkscape:version="1.4.3 (0d15f75, 2025-12-25)"
   xmlns:inkscape="http://www.inkscape.org/namespaces/inkscape"
   xmlns:sodipodi="http://sodipodi.sourceforge.net/DTD/sodipodi-0.dtd"
   xmlns:xlink="http://www.w3.org/1999/xlink"
   xmlns="http://www.w3.org/2000/svg"
   xmlns:svg="http://www.w3.org/2000/svg"
   xmlns:rdf="http://www.w3.org/1999/02/22-rdf-syntax-ns#"
   xmlns:cc="http://creativecommons.org/ns#"
   xmlns:dc="http://purl.org/dc/elements/1.1/">
  <sodipodi:namedview
     id="namedview141"
     pagecolor="#ffffff"
     bordercolor="#000000"
     borderopacity="0.25"
     inkscape:showpageshadow="2"
     inkscape:pageopacity="0.0"
     inkscape:pagecheckerboard="0"
     inkscape:deskcolor="#d1d1d1"
     inkscape:document-units="pt"
     inkscape:zoom="1.0808311"
     inkscape:cx="273.40071"
     inkscape:cy="216.03745"
     inkscape:window-width="1920"
     inkscape:window-height="1009"
     inkscape:window-x="-8"
     inkscape:window-y="-8"
     inkscape:window-maximized="1"
     inkscape:current-layer="text_7" />
  <metadata
     id="metadata1">
    <rdf:RDF>
      <cc:Work>
        <dc:type
           rdf:resource="http://purl.org/dc/dcmitype/StillImage" />
        <dc:date>2026-05-01T19:36:00.191081</dc:date>
        <dc:format>image/svg+xml</dc:format>
        <dc:creator>
          <cc:Agent>
            <dc:title>Matplotlib v3.8.4, https://matplotlib.org/</dc:title>
          </cc:Agent>
        </dc:creator>
      </cc:Work>
    </rdf:RDF>
  </metadata>
  <defs
     id="defs1">
    <style
       type="text/css"
       id="style1">*{stroke-linejoin: round; stroke-linecap: butt}</style>
  </defs>
  <g
     id="figure_1">
    <g
       id="axes_1">
      <g
         id="patch_2"
         style="display:inline">
        <path
           d="M 45.716875,356.47781 H 407.28209 V 23.837812 H 45.716875 Z"
           style="fill:none"
           id="path2" />
      </g>
      <g
         id="PolyCollection_1"
         style="display:inline">
        <defs
           id="defs2">
          <path
             id="m3a0e88502f"
             d="M 62.151658,-54.611875 V -357.01187 l 0.658708,0.58987 0.658709,0.58396 0.658709,0.57808 0.658708,0.57223 0.658709,0.56641 0.658709,0.56062 0.658709,0.55485 0.658708,0.54913 0.658709,0.54342 0.658709,0.53775 0.658709,0.53211 0.658708,0.52649 0.658709,0.52091 0.658709,0.51536 0.658708,0.50983 0.658709,0.50434 0.658709,0.49888 0.658709,0.49344 0.658708,0.48804 0.658709,0.48266 0.658709,0.47732 0.658708,0.472 0.658709,0.46672 0.658709,0.46146 0.658709,0.45623 0.658708,0.45104 0.658709,0.44587 0.658709,0.44074 0.658709,0.43563 0.658708,0.43055 0.658709,0.4255 0.658709,0.42049 0.658708,0.4155 0.658709,0.41054 0.658709,0.40561 0.658709,0.40071 0.658708,0.39584 0.658709,0.39101 0.658709,0.38619 0.658708,0.38142 0.658709,0.37667 0.658709,0.37194 0.658709,0.36726 0.658708,0.36259 0.658709,0.35797 0.658709,0.35336 0.658709,0.34879 0.658708,0.34426 0.658709,0.33973 0.658709,0.33526 0.658708,0.3308 0.658709,0.32639 0.658709,0.32199 0.658709,0.31762 0.658708,0.3133 0.658709,0.30899 0.658709,0.30471 0.658705,0.30048 0.65871,0.29626 0.65871,0.29207 0.65871,0.28792 0.65871,0.28379 0.65871,0.2797 0.65871,0.27564 0.65871,0.2716 0.6587,0.26759 0.65871,0.26361 0.65871,0.25968 0.65871,0.25575 0.65871,0.25187 0.65871,0.24801 0.65871,0.24418 0.6587,0.24039 0.65871,0.23661 0.65871,0.23288 0.65871,0.22917 0.65871,0.2255 0.65871,0.22184 0.65871,0.21823 0.6587,0.21463 0.65871,0.21108 0.65871,0.20755 0.65871,0.20405 0.65871,0.20057 0.65871,0.19714 0.65871,0.19373 0.65871,0.19034 0.65871,0.187 0.6587,0.18367 0.65871,0.18038 0.65871,0.17712 0.65871,0.17389 0.65871,0.17069 0.65871,0.16751 0.65871,0.16437 0.6587,0.16126 0.65871,0.15817 0.65871,0.15512 0.65871,0.1521 0.65871,0.1491 0.65871,0.14614 0.65871,0.1432 0.65871,0.1403 0.6587,0.13743 0.65871,0.13458 0.65871,0.13176 0.65871,0.12898 0.65871,0.12623 0.65871,0.12349 0.65871,0.1208 0.65871,0.11814 0.6587,0.11549 0.65871,0.11289 0.65871,0.11032 0.65871,0.10776 0.65871,0.10525 0.65871,0.10276 0.65871,0.1003 0.65871,0.0979 0.6587,0.0955 0.65871,0.0931 0.65871,0.0908 0.65871,0.0885 0.65871,0.0862 0.65871,0.0839 0.65871,0.0817 0.6587,0.0795 0.65871,0.0774 0.65871,0.0752 0.65871,0.0731 0.65871,0.0711 0.65871,0.069 0.65871,0.067 0.65871,0.065 0.6587,0.0631 0.65871,0.0611 0.65871,0.0593 0.65871,0.0574 0.65871,0.0555 0.65871,0.0538 0.65871,0.052 0.65871,0.0502 0.6587,0.0485 0.65871,0.0468 0.65871,0.0452 0.65871,0.0436 0.65871,0.042 0.65871,0.0404 0.65871,0.0389 0.65871,0.0374 0.6587,0.0359 0.65871,0.0344 0.65871,0.033 0.65871,0.0316 0.65871,0.0303 0.65871,0.0289 0.65871,0.0276 0.65871,0.0264 0.6587,0.0251 0.65871,0.0239 0.65871,0.0227 0.65871,0.0216 0.65871,0.0205 0.65871,0.0194 0.65871,0.0183 0.6587,0.0173 0.65871,0.0163 0.65871,0.0153 0.65871,0.0144 0.65871,0.0135 0.65871,0.0126 0.65871,0.0118 0.65871,0.0109 0.6587,0.0101 0.65871,0.009 0.65871,0.009 0.65871,0.008 0.65871,0.007 0.65871,0.007 0.65871,0.006 0.65871,0.005 0.6587,0.005 0.65871,0.004 0.65871,0.004 0.65871,0.003 0.65871,0.003 0.65871,0.003 0.65871,0.002 0.65871,0.002 0.6587,0.002 0.65871,10e-4 0.65871,9.8e-4 0.65871,7.5e-4 0.65871,5.5e-4 0.65871,3.9e-4 0.65871,2.5e-4 0.65871,1.5e-4 0.6587,6e-5 0.65871,2e-5 h 0.65871 l 0.65871,2e-5 0.65871,5e-5 0.65871,1.3e-4 0.65871,2.3e-4 0.65871,3.5e-4 0.6587,5.2e-4 0.65871,7.1e-4 0.65871,9.3e-4 0.65871,0.001 0.65871,10e-4 0.65871,0.002 0.65871,0.002 0.6587,0.002 0.65871,0.003 0.65871,0.003 0.65871,0.004 0.65871,0.004 0.65871,0.005 0.65871,0.005 0.65871,0.006 0.6587,0.007 0.65871,0.007 0.65871,0.008 0.65871,0.009 0.65871,0.009 0.65871,0.01 0.65871,0.0108 0.65871,0.0116 0.6587,0.0124 0.65871,0.0133 0.65871,0.0142 0.65871,0.0151 0.65871,0.0161 0.65871,0.0171 0.65871,0.0181 0.65871,0.0192 0.6587,0.0203 0.65871,0.0214 0.65871,0.0225 0.65871,0.0237 0.65871,0.0249 0.65871,0.0261 0.65871,0.0274 0.65871,0.0287 0.6587,0.03 0.65871,0.0314 0.65871,0.0327 0.65871,0.0341 0.65871,0.0356 0.65871,0.0371 0.65871,0.0385 0.65871,0.0401 0.6587,0.0416 0.65871,0.0432 0.65871,0.0449 0.65871,0.0465 0.65871,0.0482 0.65871,0.0499 0.65871,0.0516 0.6587,0.0534 0.65871,0.0552 0.65871,0.057 0.65871,0.0589 0.65871,0.0608 0.65871,0.0627 0.65871,0.0646 0.65871,0.0666 0.6587,0.0686 0.65871,0.0707 0.65871,0.0727 0.65871,0.0748 0.65871,0.0769 0.65871,0.0791 0.65871,0.0813 0.65871,0.0835 0.6587,0.0857 0.65871,0.088 0.65871,0.0903 0.65871,0.0926 0.65871,0.095 0.65871,0.0974 0.65871,0.0998 0.65871,0.10227 0.6587,0.10475 0.65871,0.10725 0.65871,0.10981 0.65871,0.11237 0.65871,0.11497 0.65871,0.11761 0.65871,0.12026 0.65871,0.12296 0.6587,0.12567 0.65871,0.12843 0.65871,0.1312 0.65871,0.13402 0.65871,0.13685 0.65871,0.13972 0.65871,0.14262 0.65871,0.14555 0.6587,0.14851 0.65871,0.1515 0.65871,0.15451 0.65871,0.15756 0.65871,0.16064 0.65871,0.16374 0.65871,0.16689 0.6587,0.17005 0.65871,0.17324 0.65871,0.17647 0.65871,0.17973 0.65871,0.18301 0.65871,0.18633 0.65871,0.18967 0.65871,0.19305 0.6587,0.19645 0.65871,0.19989 0.65871,0.20335 0.65871,0.20685 0.65871,0.21036 0.65871,0.21393 0.65871,0.2175 0.65871,0.22112 0.65871,0.22476 0.6587,0.22843 0.65871,0.23214 0.65871,0.23587 0.65871,0.23963 0.65871,0.24342 0.65871,0.24724 0.65871,0.25109 0.6587,0.25498 0.65871,0.25888 0.65871,0.26283 0.65871,0.26679 0.65871,0.2708 0.65871,0.27482 0.65871,0.27889 0.65871,0.28297 0.6587,0.28709 0.65871,0.29124 0.65871,0.29542 0.65871,0.29963 0.65871,0.30387 0.65871,0.30813 0.65871,0.31243 0.6587,0.31676 0.65871,0.32111 0.65871,0.3255 0.65871,0.32992 0.65871,0.33436 0.65871,0.33884 0.65871,0.34335 0.65871,0.34788 0.6587,0.35245 0.65871,0.35704 0.65871,0.36167 0.65871,0.36632 0.65871,0.371 0.65871,0.37572 0.65871,0.38047 0.65871,0.38524 0.6587,0.39004 0.65871,0.39487 0.65871,0.39974 0.65871,0.40463 0.65871,0.40955 0.65871,0.4145 0.65871,0.41949 0.65871,0.4245 0.6587,0.42954 0.65871,0.43461 0.65871,0.43971 0.65871,0.44484 0.65871,0.45 0.65871,0.4552 0.65871,0.46041 0.65871,0.46566 0.6587,0.47094 0.65871,0.47626 0.65871,0.48159 0.65871,0.48696 0.65871,0.49235 0.65871,0.49779 0.65871,0.50325 0.65871,0.50873 0.6587,0.51425 0.65871,0.5198 0.65871,0.52537 0.65871,0.53098 0.65871,0.53662 0.65871,0.54229 0.65871,0.54798 0.6587,0.55371 0.65871,0.55946 0.65871,0.56525 0.65871,0.57106 0.65871,0.57691 0.65871,0.58278 0.65871,0.58869 0.65871,0.59462 0.6587,0.60059 0.65871,0.60658 0.65871,0.61261 0.65871,0.61865 0.65871,0.62474 0.65871,0.63086 0.65871,0.63699 0.65871,0.64317 0.65871,0.64937 0.6587,0.65561 0.65871,0.66186 0.65871,0.66815 0.65871,0.67448 0.65871,0.68083 0.65871,0.68721 0.65871,0.69362 0.6587,0.70005 0.65871,0.70653 0.65871,0.71303 0.65871,0.71956 0.65871,0.72612 0.65871,0.73271 0.65871,0.73932 0.65871,0.74598 0.6587,0.75265 0.65871,0.75936 0.65871,0.7661 0.65871,0.77286 0.65871,0.77967 0.65871,0.78649 0.65871,0.79334 0.6587,0.80024 0.65871,0.80715 0.65871,0.8141 0.65871,0.82107 0.65871,0.82808 0.65871,0.83511 0.65871,0.84218 0.65871,0.84927 0.6587,0.8564 0.65871,0.86355 0.65871,0.87074 0.65871,0.87795 0.65871,0.8852 0.65871,0.89247 0.65871,0.89977 0.65871,0.9071 0.65871,0.91447 0.6587,0.92186 0.65871,0.92929 0.65871,0.93673 0.65871,0.94422 0.65871,0.95173 0.65871,0.95927 0.65871,0.96684 0.6587,0.97444 0.65871,0.98207 0.65871,0.98973 0.65871,0.99743 0.65871,1.00514 0.65871,1.01289 0.65871,1.02068 0.65871,1.02848 0.6587,1.03632 0.65871,1.04419 0.65871,1.05209 0.65871,1.06001 0.65871,1.06798 0.65871,1.07596 0.65871,1.08398 0.65871,1.09203 0.6587,1.1001 0.65871,1.10821 0.65871,1.11635 0.65871,1.12451 0.65871,1.13271 0.65871,1.14094 0.65871,1.14919 0.6587,1.15748 0.65871,1.16579 0.65871,1.17414 0.65871,1.18251 0.65871,1.19091 0.65871,1.19935 0.65871,1.20782 0.65871,1.21631 0.65871,1.22483 0.6587,1.23338 0.65871,1.24197 0.65871,1.25058 0.65871,1.25922 0.65871,1.2679 0.65871,1.2766 0.65871,1.28533 0.6587,1.29409 0.65871,1.30288 0.65871,1.3117 0.65871,1.32056 0.65871,1.32943 v 129.834785 0 h -0.65871 -0.65871 -0.65871 -0.65871 -0.6587 -0.65871 -0.65871 -0.65871 -0.65871 -0.65871 -0.65871 -0.6587 -0.65871 -0.65871 -0.65871 -0.65871 -0.65871 -0.65871 -0.65871 -0.65871 -0.6587 -0.65871 -0.65871 -0.65871 -0.65871 -0.65871 -0.65871 -0.6587 -0.65871 -0.65871 -0.65871 -0.65871 -0.65871 -0.65871 -0.65871 -0.6587 -0.65871 -0.65871 -0.65871 -0.65871 -0.65871 -0.65871 -0.65871 -0.6587 -0.65871 -0.65871 -0.65871 -0.65871 -0.65871 -0.65871 -0.6587 -0.65871 -0.65871 -0.65871 -0.65871 -0.65871 -0.65871 -0.65871 -0.65871 -0.6587 -0.65871 -0.65871 -0.65871 -0.65871 -0.65871 -0.65871 -0.65871 -0.6587 -0.65871 -0.65871 -0.65871 -0.65871 -0.65871 -0.65871 -0.6587 -0.65871 -0.65871 -0.65871 -0.65871 -0.65871 -0.65871 -0.65871 -0.6587 -0.65871 -0.65871 -0.65871 -0.65871 -0.65871 -0.65871 -0.6587 -0.65871 -0.65871 -0.65871 -0.65871 -0.65871 -0.65871 -0.65871 -0.65871 -0.6587 -0.65871 -0.65871 -0.65871 -0.65871 -0.65871 -0.65871 -0.65871 -0.6587 -0.65871 -0.65871 -0.65871 -0.65871 -0.65871 -0.65871 -0.6587 -0.65871 -0.65871 -0.65871 -0.65871 -0.65871 -0.65871 -0.65871 -0.6587 -0.65871 -0.65871 -0.65871 -0.65871 -0.65871 -0.65871 -0.65871 -0.6587 -0.65871 -0.65871 -0.65871 -0.65871 -0.65871 -0.65871 -0.65871 -0.6587 -0.65871 -0.65871 -0.65871 -0.65871 -0.65871 -0.65871 -0.65871 -0.6587 -0.65871 -0.65871 -0.65871 -0.65871 -0.65871 -0.65871 -0.65871 -0.6587 -0.65871 -0.65871 -0.65871 -0.65871 -0.65871 -0.65871 -0.6587 -0.65871 -0.65871 -0.65871 -0.65871 -0.65871 -0.65871 -0.65871 -0.6587 -0.65871 -0.65871 -0.65871 -0.65871 -0.65871 -0.65871 -0.6587 -0.65871 -0.65871 -0.65871 -0.65871 -0.65871 -0.65871 -0.65871 -0.65871 -0.6587 -0.65871 -0.65871 -0.65871 -0.65871 -0.65871 -0.65871 -0.65871 -0.6587 -0.65871 -0.65871 -0.65871 -0.65871 -0.65871 -0.65871 -0.6587 -0.65871 -0.65871 -0.65871 -0.65871 -0.65871 -0.65871 -0.65871 -0.6587 -0.65871 -0.65871 -0.65871 -0.65871 -0.65871 -0.65871 -0.65871 -0.6587 -0.65871 -0.65871 -0.65871 -0.65871 -0.65871 -0.65871 -0.65871 -0.6587 -0.65871 -0.65871 -0.65871 -0.65871 -0.65871 -0.65871 -0.65871 -0.6587 -0.65871 -0.65871 -0.65871 -0.65871 -0.65871 -0.65871 -0.65871 -0.6587 -0.65871 -0.65871 -0.65871 -0.65871 -0.65871 -0.65871 -0.6587 -0.65871 -0.65871 -0.65871 -0.65871 -0.65871 -0.65871 -0.65871 -0.6587 -0.65871 -0.65871 -0.65871 -0.65871 -0.65871 -0.65871 -0.65871 -0.6587 -0.65871 -0.65871 -0.65871 -0.65871 -0.65871 -0.65871 -0.65871 -0.6587 -0.65871 -0.65871 -0.65871 -0.65871 -0.65871 -0.65871 -0.65871 -0.6587 -0.65871 -0.65871 -0.65871 -0.65871 -0.65871 -0.65871 -0.65871 -0.6587 -0.65871 -0.65871 -0.65871 -0.65871 -0.65871 -0.65871 -0.6587 -0.65871 -0.65871 -0.65871 -0.65871 -0.65871 -0.65871 -0.65871 -0.6587 -0.65871 -0.65871 -0.65871 -0.65871 -0.65871 -0.65871 -0.65871 -0.6587 -0.65871 -0.65871 -0.65871 -0.65871 -0.65871 -0.65871 -0.65871 -0.6587 -0.65871 -0.65871 -0.65871 -0.65871 -0.65871 -0.65871 -0.65871 -0.6587 -0.65871 -0.65871 -0.65871 -0.65871 -0.65871 -0.65871 -0.65871 -0.6587 -0.65871 -0.65871 -0.65871 -0.65871 -0.65871 -0.65871 -0.6587 -0.65871 -0.65871 -0.65871 -0.65871 -0.65871 -0.65871 -0.65871 -0.6587 -0.65871 -0.65871 -0.65871 -0.65871 -0.65871 -0.65871 -0.65871 -0.6587 -0.65871 -0.65871 -0.65871 -0.65871 -0.65871 -0.65871 -0.65871 -0.6587 -0.65871 -0.65871 -0.65871 -0.65871 -0.65871 -0.65871 -0.65871 -0.6587 -0.65871 -0.65871 -0.65871 -0.65871 -0.65871 -0.65871 -0.6587 -0.65871 -0.65871 -0.65871 -0.65871 -0.65871 -0.65871 -0.65871 -0.6587 -0.65871 -0.65871 -0.65871 -0.65871 -0.65871 -0.65871 -0.65871 -0.6587 -0.65871 -0.65871 -0.65871 -0.65871 -0.65871 -0.65871 -0.65871 -0.6587 -0.65871 -0.65871 -0.65871 -0.65871 -0.65871 -0.65871 -0.6587 -0.65871 -0.65871 -0.65871 -0.65871 -0.65871 -0.65871 -0.65871 -0.65871 -0.6587 -0.65871 -0.65871 -0.65871 -0.65871 -0.65871 -0.65871 -0.6587 -0.65871 -0.65871 -0.65871 -0.65871 -0.65871 -0.65871 -0.6587 -0.65871 -0.65871 -0.65871 -0.65871 -0.65871 -0.65871 -0.65871 H 99.698055 99.039346 98.380637 97.721929 97.06322 96.404511 95.745802 95.087094 94.428385 93.769676 93.110968 92.452259 91.79355 91.134841 90.476133 89.817424 89.158715 88.500006 87.841298 87.182589 86.52388 85.865172 85.206463 84.547754 83.889045 83.230337 82.571628 81.912919 81.254211 80.595502 79.936793 79.278084 78.619376 77.960667 77.301958 76.643249 75.984541 75.325832 74.667123 74.008415 73.349706 72.690997 72.032288 71.37358 70.714871 70.056162 69.397454 68.738745 68.080036 67.421327 66.762619 66.10391 65.445201 64.786492 64.127784 63.469075 62.810366 Z"
             style="stroke:#00a8ff;stroke-opacity:0.2" />
        </defs>
        <g
           clip-path="url(#p02277e7ca7)"
           id="g2"
           style="display:inline">
          <use
             xlink:href="#m3a0e88502f"
             x="0"
             y="395.9697"
             style="display:inline;fill:#00a8ff;fill-opacity:0.2;stroke:#00a8ff;stroke-opacity:0.2"
             id="use2" />
        </g>
      </g>
      <g
         id="matplotlib.axis_1"
         style="display:inline">
        <g
           id="xtick_1">
          <g
             id="line2d_1">
            <path
               d="M 62.151658,356.47781 V 23.837812"
               clip-path="url(#p02277e7ca7)"
               style="fill:none;stroke:#b0b0b0;stroke-width:0.8;stroke-dasharray:0.8, 1.32;stroke-dashoffset:0;stroke-opacity:0.6"
               id="path3" />
          </g>
          <g
             id="line2d_2">
            <defs
               id="defs3">
              <path
                 id="m1025f803e9"
                 d="M 0,0 V 3.5"
                 style="stroke:#000000;stroke-width:0.8" />
            </defs>
            <g
               id="g3">
              <use
                 xlink:href="#m1025f803e9"
                 x="62.151657"
                 y="356.47781"
                 style="stroke:#000000;stroke-width:0.8"
                 id="use3" />
            </g>
          </g>
          <g
             id="text_1">
            <!-- 0.0 -->
            <g
               transform="matrix(0.1,0,0,-0.1,54.200095,371.07625)"
               id="g6">
              <defs
                 id="defs4">
                <path
                   id="DejaVuSans-30"
                   d="m 2034,4250 q -487,0 -733,-480 -245,-479 -245,-1442 0,-959 245,-1439 246,-480 733,-480 491,0 736,480 246,480 246,1439 0,963 -246,1442 -245,480 -736,480 z m 0,500 q 785,0 1199,-621 414,-620 414,-1801 0,-1178 -414,-1799 -414,-620 -1199,-620 -784,0 -1198,620 -414,621 -414,1799 0,1181 414,1801 414,621 1198,621 z"
                   transform="scale(0.015625)" />
                <path
                   id="DejaVuSans-2e"
                   d="m 684,794 h 660 V 0 H 684 Z"
                   transform="scale(0.015625)" />
              </defs>
              <use
                 xlink:href="#DejaVuSans-30"
                 id="use4" />
              <use
                 xlink:href="#DejaVuSans-2e"
                 x="63.623047"
                 id="use5" />
              <use
                 xlink:href="#DejaVuSans-30"
                 x="95.410156"
                 id="use6" />
            </g>
          </g>
        </g>
        <g
           id="xtick_2">
          <g
             id="line2d_3">
            <path
               d="M 127.89079,356.47781 V 23.837812"
               clip-path="url(#p02277e7ca7)"
               style="fill:none;stroke:#b0b0b0;stroke-width:0.8;stroke-dasharray:0.8, 1.32;stroke-dashoffset:0;stroke-opacity:0.6"
               id="path6" />
          </g>
          <g
             id="line2d_4">
            <g
               id="g7">
              <use
                 xlink:href="#m1025f803e9"
                 x="127.89079"
                 y="356.47781"
                 style="stroke:#000000;stroke-width:0.8"
                 id="use7" />
            </g>
          </g>
          <g
             id="text_2">
            <!-- 0.5 -->
            <g
               transform="matrix(0.1,0,0,-0.1,119.93923,371.07625)"
               id="g10">
              <defs
                 id="defs7">
                <path
                   id="DejaVuSans-35"
                   d="M 691,4666 H 3169 V 4134 H 1269 V 2991 q 137,47 274,70 138,23 276,23 781,0 1237,-428 457,-428 457,-1159 Q 3513,744 3044,326 2575,-91 1722,-91 1428,-91 1123,-41 819,9 494,109 v 635 q 281,-153 581,-228 300,-75 634,-75 541,0 856,284 316,284 316,772 0,487 -316,771 -315,285 -856,285 -253,0 -505,-56 -251,-56 -513,-175 z"
                   transform="scale(0.015625)" />
              </defs>
              <use
                 xlink:href="#DejaVuSans-30"
                 id="use8" />
              <use
                 xlink:href="#DejaVuSans-2e"
                 x="63.623047"
                 id="use9" />
              <use
                 xlink:href="#DejaVuSans-35"
                 x="95.410156"
                 id="use10" />
            </g>
          </g>
        </g>
        <g
           id="xtick_3">
          <g
             id="line2d_5">
            <path
               d="M 193.62992,356.47781 V 23.837812"
               clip-path="url(#p02277e7ca7)"
               style="fill:none;stroke:#b0b0b0;stroke-width:0.8;stroke-dasharray:0.8, 1.32;stroke-dashoffset:0;stroke-opacity:0.6"
               id="path10" />
          </g>
          <g
             id="line2d_6">
            <g
               id="g11">
              <use
                 xlink:href="#m1025f803e9"
                 x="193.62991"
                 y="356.47781"
                 style="stroke:#000000;stroke-width:0.8"
                 id="use11" />
            </g>
          </g>
          <g
             id="text_3">
            <!-- 1.0 -->
            <g
               transform="matrix(0.1,0,0,-0.1,185.67836,371.07625)"
               id="g14">
              <defs
                 id="defs11">
                <path
                   id="DejaVuSans-31"
                   d="M 794,531 H 1825 V 4091 L 703,3866 v 575 l 1116,225 h 631 V 531 H 3481 V 0 H 794 Z"
                   transform="scale(0.015625)" />
              </defs>
              <use
                 xlink:href="#DejaVuSans-31"
                 id="use12" />
              <use
                 xlink:href="#DejaVuSans-2e"
                 x="63.623047"
                 id="use13" />
              <use
                 xlink:href="#DejaVuSans-30"
                 x="95.410156"
                 id="use14" />
            </g>
          </g>
        </g>
        <g
           id="xtick_4">
          <g
             id="line2d_7">
            <path
               d="M 259.36905,356.47781 V 23.837812"
               clip-path="url(#p02277e7ca7)"
               style="fill:none;stroke:#b0b0b0;stroke-width:0.8;stroke-dasharray:0.8, 1.32;stroke-dashoffset:0;stroke-opacity:0.6"
               id="path14" />
          </g>
          <g
             id="line2d_8">
            <g
               id="g15">
              <use
                 xlink:href="#m1025f803e9"
                 x="259.36905"
                 y="356.47781"
                 style="stroke:#000000;stroke-width:0.8"
                 id="use15" />
            </g>
          </g>
          <g
             id="text_4">
            <!-- 1.5 -->
            <g
               transform="matrix(0.1,0,0,-0.1,251.41749,371.07625)"
               id="g18">
              <use
                 xlink:href="#DejaVuSans-31"
                 id="use16" />
              <use
                 xlink:href="#DejaVuSans-2e"
                 x="63.623047"
                 id="use17" />
              <use
                 xlink:href="#DejaVuSans-35"
                 x="95.410156"
                 id="use18" />
            </g>
          </g>
        </g>
        <g
           id="xtick_5">
          <g
             id="line2d_9">
            <path
               d="M 325.10818,356.47781 V 23.837812"
               clip-path="url(#p02277e7ca7)"
               style="fill:none;stroke:#b0b0b0;stroke-width:0.8;stroke-dasharray:0.8, 1.32;stroke-dashoffset:0;stroke-opacity:0.6"
               id="path18" />
          </g>
          <g
             id="line2d_10">
            <g
               id="g19">
              <use
                 xlink:href="#m1025f803e9"
                 x="325.10818"
                 y="356.47781"
                 style="stroke:#000000;stroke-width:0.8"
                 id="use19" />
            </g>
          </g>
          <g
             id="text_5">
            <!-- 2.0 -->
            <g
               transform="matrix(0.1,0,0,-0.1,317.15662,371.07625)"
               id="g22">
              <defs
                 id="defs19">
                <path
                   id="DejaVuSans-32"
                   d="M 1228,531 H 3431 V 0 H 469 v 531 q 359,372 979,998 621,627 780,809 303,340 423,576 121,236 121,464 0,372 -261,606 -261,235 -680,235 -297,0 -627,-103 -329,-103 -704,-313 v 638 q 381,153 712,231 332,78 607,78 725,0 1156,-363 431,-362 431,-968 0,-288 -108,-546 -107,-257 -392,-607 -78,-91 -497,-524 Q 1991,1309 1228,531 Z"
                   transform="scale(0.015625)" />
              </defs>
              <use
                 xlink:href="#DejaVuSans-32"
                 id="use20" />
              <use
                 xlink:href="#DejaVuSans-2e"
                 x="63.623047"
                 id="use21" />
              <use
                 xlink:href="#DejaVuSans-30"
                 x="95.410156"
                 id="use22" />
            </g>
          </g>
        </g>
        <g
           id="xtick_6">
          <g
             id="line2d_11">
            <path
               d="M 390.84731,356.47781 V 23.837812"
               clip-path="url(#p02277e7ca7)"
               style="fill:none;stroke:#b0b0b0;stroke-width:0.8;stroke-dasharray:0.8, 1.32;stroke-dashoffset:0;stroke-opacity:0.6"
               id="path22" />
          </g>
          <g
             id="line2d_12">
            <g
               id="g23">
              <use
                 xlink:href="#m1025f803e9"
                 x="390.84732"
                 y="356.47781"
                 style="stroke:#000000;stroke-width:0.8"
                 id="use23" />
            </g>
          </g>
          <g
             id="text_6">
            <!-- 2.5 -->
            <g
               transform="matrix(0.1,0,0,-0.1,382.89575,371.07625)"
               id="g26">
              <use
                 xlink:href="#DejaVuSans-32"
                 id="use24" />
              <use
                 xlink:href="#DejaVuSans-2e"
                 x="63.623047"
                 id="use25" />
              <use
                 xlink:href="#DejaVuSans-35"
                 x="95.410156"
                 id="use26" />
            </g>
          </g>
        </g>
        <g
           id="text_7"
           style="display:inline">
          <!-- x (Longitud) -->
          <g
             transform="matrix(0.12,0,0,-0.12,190.20792,386.27406)"
             id="g38">
            <defs
               id="defs26">
              <path
                 id="DejaVuSans-78"
                 d="M 3513,3500 2247,1797 3578,0 H 2900 L 1881,1375 863,0 H 184 L 1544,1831 300,3500 h 678 l 928,-1247 928,1247 z"
                 transform="scale(0.015625)" />
              <path
                 id="DejaVuSans-20"
                 transform="scale(0.015625)" />
              <path
                 id="DejaVuSans-28"
                 d="m 1984,4856 q -418,-718 -622,-1422 -203,-703 -203,-1425 0,-721 205,-1429 205,-708 620,-1424 h -500 q -468,735 -701,1444 -233,709 -233,1409 0,697 231,1403 232,707 703,1444 z"
                 transform="scale(0.015625)" />
              <path
                 id="DejaVuSans-4c"
                 d="m 628,4666 h 631 V 531 H 3531 V 0 H 628 Z"
                 transform="scale(0.015625)" />
              <path
                 id="DejaVuSans-6f"
                 d="m 1959,3097 q -462,0 -731,-361 -269,-361 -269,-989 0,-628 267,-989 268,-361 733,-361 460,0 728,362 269,363 269,988 0,622 -269,986 -268,364 -728,364 z m 0,487 q 750,0 1178,-488 429,-487 429,-1349 Q 3566,888 3137,398 2709,-91 1959,-91 1206,-91 779,398 353,888 353,1747 q 0,862 426,1349 427,488 1180,488 z"
                 transform="scale(0.015625)" />
              <path
                 id="DejaVuSans-6e"
                 d="M 3513,2113 V 0 h -575 v 2094 q 0,497 -194,743 -194,247 -581,247 -466,0 -735,-297 -269,-296 -269,-809 V 0 H 581 v 3500 h 578 v -544 q 207,316 486,472 280,156 646,156 603,0 912,-373 310,-373 310,-1098 z"
                 transform="scale(0.015625)" />
              <path
                 id="DejaVuSans-67"
                 d="m 2906,1791 q 0,625 -258,968 -257,344 -723,344 -462,0 -720,-344 -258,-343 -258,-968 0,-622 258,-966 258,-344 720,-344 466,0 723,344 258,344 258,966 z M 3481,434 q 0,-893 -397,-1329 -396,-436 -1215,-436 -303,0 -572,45 -269,45 -522,139 v 559 q 253,-137 500,-202 247,-66 503,-66 566,0 847,295 281,295 281,892 V 616 Q 2728,306 2450,153 2172,0 1784,0 1141,0 747,490 353,981 353,1791 q 0,812 394,1302 394,491 1037,491 388,0 666,-153 278,-153 456,-462 v 531 h 575 z"
                 transform="scale(0.015625)" />
              <path
                 id="DejaVuSans-69"
                 d="m 603,3500 h 575 V 0 H 603 Z m 0,1363 h 575 V 4134 H 603 Z"
                 transform="scale(0.015625)" />
              <path
                 id="DejaVuSans-74"
                 d="M 1172,4494 V 3500 H 2356 V 3053 H 1172 V 1153 q 0,-428 117,-550 117,-122 477,-122 h 590 V 0 H 1766 Q 1100,0 847,248 594,497 594,1153 V 3053 H 172 v 447 h 422 v 994 z"
                 transform="scale(0.015625)" />
              <path
                 id="DejaVuSans-75"
                 d="m 544,1381 v 2119 h 575 V 1403 q 0,-497 193,-746 194,-248 582,-248 465,0 735,297 271,297 271,810 v 1984 h 575 V 0 H 2900 V 538 Q 2691,219 2414,64 2138,-91 1772,-91 1169,-91 856,284 544,659 544,1381 Z m 1447,2203 z"
                 transform="scale(0.015625)" />
              <path
                 id="DejaVuSans-64"
                 d="m 2906,2969 v 1894 h 575 V 0 H 2906 V 525 Q 2725,213 2448,61 2172,-91 1784,-91 1150,-91 751,415 353,922 353,1747 q 0,825 398,1331 399,506 1033,506 388,0 664,-152 277,-151 458,-463 z M 947,1747 q 0,-634 261,-995 261,-361 717,-361 456,0 718,361 263,361 263,995 0,634 -263,995 -262,361 -718,361 -456,0 -717,-361 -261,-361 -261,-995 z"
                 transform="scale(0.015625)" />
              <path
                 id="DejaVuSans-29"
                 d="m 513,4856 h 500 q 468,-737 701,-1444 233,-706 233,-1403 0,-700 -233,-1409 -233,-709 -701,-1444 H 513 q 415,716 620,1424 205,708 205,1429 0,722 -205,1425 -205,704 -620,1422 z"
                 transform="scale(0.015625)" />
            </defs>
            <use
               xlink:href="#DejaVuSans-78"
               id="use27" />
            <use
               xlink:href="#DejaVuSans-20"
               x="59.179688"
               id="use28" />
            <use
               xlink:href="#DejaVuSans-28"
               x="90.966797"
               id="use29" />
            <use
               xlink:href="#DejaVuSans-4c"
               x="129.98047"
               id="use30" />
            <use
               xlink:href="#DejaVuSans-6f"
               x="183.94336"
               id="use31" />
            <use
               xlink:href="#DejaVuSans-6e"
               x="245.125"
               id="use32" />
            <use
               xlink:href="#DejaVuSans-67"
               x="308.50391"
               id="use33" />
            <use
               xlink:href="#DejaVuSans-69"
               x="371.98047"
               id="use34" />
            <use
               xlink:href="#DejaVuSans-74"
               x="399.76367"
               id="use35" />
            <use
               xlink:href="#DejaVuSans-75"
               x="438.97266"
               id="use36" />
            <use
               xlink:href="#DejaVuSans-64"
               x="502.35156"
               id="use37" />
            <use
               xlink:href="#DejaVuSans-29"
               x="565.82812"
               id="use38"
               style="display:inline" />
          </g>
        </g>
      </g>
      <g
         id="matplotlib.axis_2"
         style="display:inline">
        <g
           id="ytick_1">
          <g
             id="line2d_13">
            <path
               d="M 45.716875,341.35781 H 407.28209"
               clip-path="url(#p02277e7ca7)"
               style="fill:none;stroke:#b0b0b0;stroke-width:0.8;stroke-dasharray:0.8, 1.32;stroke-dashoffset:0;stroke-opacity:0.6"
               id="path38" />
          </g>
          <g
             id="line2d_14">
            <defs
               id="defs38">
              <path
                 id="m7176910ff1"
                 d="M 0,0 H -3.5"
                 style="stroke:#000000;stroke-width:0.8" />
            </defs>
            <g
               id="g39">
              <use
                 xlink:href="#m7176910ff1"
                 x="45.716873"
                 y="341.35782"
                 style="stroke:#000000;stroke-width:0.8"
                 id="use39" />
            </g>
          </g>
          <g
             id="text_8">
            <!-- 0.0 -->
            <g
               transform="matrix(0.1,0,0,-0.1,22.81375,345.15703)"
               id="g42">
              <use
                 xlink:href="#DejaVuSans-30"
                 id="use40" />
              <use
                 xlink:href="#DejaVuSans-2e"
                 x="63.623047"
                 id="use41" />
              <use
                 xlink:href="#DejaVuSans-30"
                 x="95.410156"
                 id="use42" />
            </g>
          </g>
        </g>
        <g
           id="ytick_2">
          <g
             id="line2d_15">
            <path
               d="M 45.716875,275.61868 H 407.28209"
               clip-path="url(#p02277e7ca7)"
               style="fill:none;stroke:#b0b0b0;stroke-width:0.8;stroke-dasharray:0.8, 1.32;stroke-dashoffset:0;stroke-opacity:0.6"
               id="path42" />
          </g>
          <g
             id="line2d_16">
            <g
               id="g43">
              <use
                 xlink:href="#m7176910ff1"
                 x="45.716873"
                 y="275.61868"
                 style="stroke:#000000;stroke-width:0.8"
                 id="use43" />
            </g>
          </g>
          <g
             id="text_9">
            <!-- 0.5 -->
            <g
               transform="matrix(0.1,0,0,-0.1,22.81375,279.4179)"
               id="g46">
              <use
                 xlink:href="#DejaVuSans-30"
                 id="use44" />
              <use
                 xlink:href="#DejaVuSans-2e"
                 x="63.623047"
                 id="use45" />
              <use
                 xlink:href="#DejaVuSans-35"
                 x="95.410156"
                 id="use46" />
            </g>
          </g>
        </g>
        <g
           id="ytick_3">
          <g
             id="line2d_17">
            <path
               d="M 45.716875,209.87955 H 407.28209"
               clip-path="url(#p02277e7ca7)"
               style="fill:none;stroke:#b0b0b0;stroke-width:0.8;stroke-dasharray:0.8, 1.32;stroke-dashoffset:0;stroke-opacity:0.6"
               id="path46" />
          </g>
          <g
             id="line2d_18">
            <g
               id="g47">
              <use
                 xlink:href="#m7176910ff1"
                 x="45.716873"
                 y="209.87955"
                 style="stroke:#000000;stroke-width:0.8"
                 id="use47" />
            </g>
          </g>
          <g
             id="text_10">
            <!-- 1.0 -->
            <g
               transform="matrix(0.1,0,0,-0.1,22.81375,213.67877)"
               id="g50">
              <use
                 xlink:href="#DejaVuSans-31"
                 id="use48" />
              <use
                 xlink:href="#DejaVuSans-2e"
                 x="63.623047"
                 id="use49" />
              <use
                 xlink:href="#DejaVuSans-30"
                 x="95.410156"
                 id="use50" />
            </g>
          </g>
        </g>
        <g
           id="ytick_4">
          <g
             id="line2d_19">
            <path
               d="M 45.716875,144.14042 H 407.28209"
               clip-path="url(#p02277e7ca7)"
               style="fill:none;stroke:#b0b0b0;stroke-width:0.8;stroke-dasharray:0.8, 1.32;stroke-dashoffset:0;stroke-opacity:0.6"
               id="path50" />
          </g>
          <g
             id="line2d_20">
            <g
               id="g51">
              <use
                 xlink:href="#m7176910ff1"
                 x="45.716873"
                 y="144.14043"
                 style="stroke:#000000;stroke-width:0.8"
                 id="use51" />
            </g>
          </g>
          <g
             id="text_11">
            <!-- 1.5 -->
            <g
               transform="matrix(0.1,0,0,-0.1,22.81375,147.93964)"
               id="g54">
              <use
                 xlink:href="#DejaVuSans-31"
                 id="use52" />
              <use
                 xlink:href="#DejaVuSans-2e"
                 x="63.623047"
                 id="use53" />
              <use
                 xlink:href="#DejaVuSans-35"
                 x="95.410156"
                 id="use54" />
            </g>
          </g>
        </g>
        <g
           id="ytick_5">
          <g
             id="line2d_21">
            <path
               d="M 45.716875,78.401291 H 407.28209"
               clip-path="url(#p02277e7ca7)"
               style="fill:none;stroke:#b0b0b0;stroke-width:0.8;stroke-dasharray:0.8, 1.32;stroke-dashoffset:0;stroke-opacity:0.6"
               id="path54" />
          </g>
          <g
             id="line2d_22">
            <g
               id="g55">
              <use
                 xlink:href="#m7176910ff1"
                 x="45.716873"
                 y="78.401291"
                 style="stroke:#000000;stroke-width:0.8"
                 id="use55" />
            </g>
          </g>
          <g
             id="text_12">
            <!-- 2.0 -->
            <g
               transform="matrix(0.1,0,0,-0.1,22.81375,82.20051)"
               id="g58">
              <use
                 xlink:href="#DejaVuSans-32"
                 id="use56" />
              <use
                 xlink:href="#DejaVuSans-2e"
                 x="63.623047"
                 id="use57" />
              <use
                 xlink:href="#DejaVuSans-30"
                 x="95.410156"
                 id="use58" />
            </g>
          </g>
        </g>
        <g
           id="text_13">
          <!-- y (Radio) -->
          <g
             transform="matrix(0,-0.12,-0.12,0,16.318125,217.15594)"
             id="g67"
             style="display:inline">
            <defs
               id="defs58">
              <path
                 id="DejaVuSans-79"
                 d="m 2059,-325 q -243,-625 -475,-815 -231,-191 -618,-191 H 506 v 481 h 338 q 237,0 368,113 132,112 291,531 L 1606,56 191,3500 H 800 L 1894,763 2988,3500 h 609 z"
                 transform="scale(0.015625)" />
              <path
                 id="DejaVuSans-52"
                 d="m 2841,2188 q 203,-69 395,-294 192,-225 386,-619 L 4263,0 h -679 l -596,1197 q -232,469 -449,622 -217,153 -592,153 H 1259 V 0 H 628 v 4666 h 1425 q 800,0 1194,-335 394,-334 394,-1009 0,-441 -205,-732 -205,-290 -595,-402 z M 1259,4147 V 2491 h 794 q 456,0 689,211 233,211 233,620 0,409 -233,617 -233,208 -689,208 z"
                 transform="scale(0.015625)" />
              <path
                 id="DejaVuSans-61"
                 d="m 2194,1759 q -697,0 -966,-159 -269,-159 -269,-544 0,-306 202,-486 202,-179 548,-179 479,0 768,339 289,339 289,901 v 128 z m 1147,238 V 0 H 2766 V 531 Q 2569,213 2275,61 1981,-91 1556,-91 q -537,0 -855,302 -317,302 -317,808 0,590 395,890 396,300 1180,300 h 807 v 57 q 0,397 -261,614 -261,217 -733,217 -300,0 -585,-72 -284,-72 -546,-216 v 532 q 315,122 612,182 297,61 578,61 760,0 1135,-394 375,-393 375,-1193 z"
                 transform="scale(0.015625)" />
            </defs>
            <use
               xlink:href="#DejaVuSans-79"
               id="use59" />
            <use
               xlink:href="#DejaVuSans-20"
               x="59.179688"
               id="use60" />
            <use
               xlink:href="#DejaVuSans-28"
               x="90.966797"
               id="use61" />
            <use
               xlink:href="#DejaVuSans-52"
               x="129.98047"
               id="use62" />
            <use
               xlink:href="#DejaVuSans-61"
               x="197.21289"
               id="use63" />
            <use
               xlink:href="#DejaVuSans-64"
               x="258.49219"
               id="use64" />
            <use
               xlink:href="#DejaVuSans-69"
               x="321.96875"
               id="use65"
               style="display:inline" />
            <use
               xlink:href="#DejaVuSans-6f"
               x="349.75195"
               id="use66"
               style="display:inline" />
            <use
               xlink:href="#DejaVuSans-29"
               x="410.93359"
               id="use67" />
          </g>
        </g>
      </g>
      <g
         id="line2d_23"
         style="display:inline">
        <path
           d="m 62.151658,38.957812 4.610961,4.00603 4.610961,3.725166 4.610961,3.454508 4.610961,3.19406 4.610961,2.943818 4.610961,2.703786 4.610961,2.473961 5.26967,2.559061 5.269675,2.287451 5.26966,2.03108 5.26967,1.789945 5.26967,1.564049 5.92838,1.508511 5.92838,1.263592 5.92838,1.040367 6.58709,0.920546 6.58708,0.701506 7.2458,0.554185 8.56321,0.413837 9.88063,0.234179 13.83289,0.07361 21.07868,0.11385 9.88063,0.291856 7.9045,0.437905 7.2458,0.608725 6.58708,0.759837 6.58709,0.98721 5.92838,1.10749 5.92838,1.337464 5.26967,1.39946 5.26967,1.613547 5.26967,1.842872 5.26967,2.087435 5.26967,2.347235 5.26967,2.622272 4.61096,2.532084 4.61096,2.764538 4.61096,3.00719 4.61096,3.26005 4.61096,3.52313 4.61096,3.79642 4.61096,4.0799 4.61097,4.3736 4.61096,4.6775 4.61096,4.99162 4.61096,5.31594 4.61096,5.65047 4.61096,5.99521 4.61096,6.35015 4.61096,6.71531 4.61096,7.09067 4.61097,7.47623 4.61096,7.87202 4.61096,8.27799 4.61096,8.6942 4.61096,9.12059 v 0"
           clip-path="url(#p02277e7ca7)"
           style="fill:none;stroke:#00a8ff;stroke-width:3;stroke-linecap:square"
           id="path67" />
      </g>
      <g
         id="line2d_24"
         style="display:inline">
        <path
           d="M 62.151658,341.35781 H 390.84731 v 0"
           clip-path="url(#p02277e7ca7)"
           style="fill:none;stroke:#ff3333;stroke-width:2;stroke-dasharray:7.4, 3.2;stroke-dashoffset:0"
           id="path68" />
      </g>
      <g
         id="patch_3">
        <path
           d="M 45.716875 356.477812  L 45.716875 23.837812  "
           style="fill: none; stroke: #000000; stroke-width: 0.8; stroke-linejoin: miter; stroke-linecap: square"
           id="path69" />
      </g>
      <g
         id="patch_4">
        <path
           d="M 407.282092 356.477812  L 407.282092 23.837812  "
           style="fill: none; stroke: #000000; stroke-width: 0.8; stroke-linejoin: miter; stroke-linecap: square"
           id="path70" />
      </g>
      <g
         id="patch_5">
        <path
           d="M 45.716875 356.477812  L 407.282092 356.477812  "
           style="fill: none; stroke: #000000; stroke-width: 0.8; stroke-linejoin: miter; stroke-linecap: square"
           id="path71" />
      </g>
      <g
         id="patch_6"
         style="display:inline">
        <path
           d="M 45.716875,23.837812 H 407.28209"
           style="fill:none;stroke:#000000;stroke-width:0.8;stroke-linecap:square;stroke-linejoin:miter"
           id="path72" />
      </g>
      <g
         id="text_14">
        <!-- Perfil de la Fresa (Modelo 2) -->
        <g
           transform="translate(114.821046 17.837812) scale(0.14 -0.14)"
           id="g100">
          <defs
             id="defs72">
            <path
               id="DejaVuSans-Bold-50"
               d="M 588 4666  L 2584 4666  Q 3475 4666 3951 4270  Q 4428 3875 4428 3144  Q 4428 2409 3951 2014  Q 3475 1619 2584 1619  L 1791 1619  L 1791 0  L 588 0  L 588 4666  z M 1791 3794  L 1791 2491  L 2456 2491  Q 2806 2491 2997 2661  Q 3188 2831 3188 3144  Q 3188 3456 2997 3625  Q 2806 3794 2456 3794  L 1791 3794  z "
               transform="scale(0.015625)" />
            <path
               id="DejaVuSans-Bold-65"
               d="M 4031 1759  L 4031 1441  L 1416 1441  Q 1456 1047 1700 850  Q 1944 653 2381 653  Q 2734 653 3104 758  Q 3475 863 3866 1075  L 3866 213  Q 3469 63 3072 -14  Q 2675 -91 2278 -91  Q 1328 -91 801 392  Q 275 875 275 1747  Q 275 2603 792 3093  Q 1309 3584 2216 3584  Q 3041 3584 3536 3087  Q 4031 2591 4031 1759  z M 2881 2131  Q 2881 2450 2695 2645  Q 2509 2841 2209 2841  Q 1884 2841 1681 2658  Q 1478 2475 1428 2131  L 2881 2131  z "
               transform="scale(0.015625)" />
            <path
               id="DejaVuSans-Bold-72"
               d="M 3138 2547  Q 2991 2616 2845 2648  Q 2700 2681 2553 2681  Q 2122 2681 1889 2404  Q 1656 2128 1656 1613  L 1656 0  L 538 0  L 538 3500  L 1656 3500  L 1656 2925  Q 1872 3269 2151 3426  Q 2431 3584 2822 3584  Q 2878 3584 2943 3579  Q 3009 3575 3134 3559  L 3138 2547  z "
               transform="scale(0.015625)" />
            <path
               id="DejaVuSans-Bold-66"
               d="M 2841 4863  L 2841 4128  L 2222 4128  Q 1984 4128 1890 4042  Q 1797 3956 1797 3744  L 1797 3500  L 2753 3500  L 2753 2700  L 1797 2700  L 1797 0  L 678 0  L 678 2700  L 122 2700  L 122 3500  L 678 3500  L 678 3744  Q 678 4316 997 4589  Q 1316 4863 1984 4863  L 2841 4863  z "
               transform="scale(0.015625)" />
            <path
               id="DejaVuSans-Bold-69"
               d="M 538 3500  L 1656 3500  L 1656 0  L 538 0  L 538 3500  z M 538 4863  L 1656 4863  L 1656 3950  L 538 3950  L 538 4863  z "
               transform="scale(0.015625)" />
            <path
               id="DejaVuSans-Bold-6c"
               d="M 538 4863  L 1656 4863  L 1656 0  L 538 0  L 538 4863  z "
               transform="scale(0.015625)" />
            <path
               id="DejaVuSans-Bold-20"
               transform="scale(0.015625)" />
            <path
               id="DejaVuSans-Bold-64"
               d="M 2919 2988  L 2919 4863  L 4044 4863  L 4044 0  L 2919 0  L 2919 506  Q 2688 197 2409 53  Q 2131 -91 1766 -91  Q 1119 -91 703 423  Q 288 938 288 1747  Q 288 2556 703 3070  Q 1119 3584 1766 3584  Q 2128 3584 2408 3439  Q 2688 3294 2919 2988  z M 2181 722  Q 2541 722 2730 984  Q 2919 1247 2919 1747  Q 2919 2247 2730 2509  Q 2541 2772 2181 2772  Q 1825 2772 1636 2509  Q 1447 2247 1447 1747  Q 1447 1247 1636 984  Q 1825 722 2181 722  z "
               transform="scale(0.015625)" />
            <path
               id="DejaVuSans-Bold-61"
               d="M 2106 1575  Q 1756 1575 1579 1456  Q 1403 1338 1403 1106  Q 1403 894 1545 773  Q 1688 653 1941 653  Q 2256 653 2472 879  Q 2688 1106 2688 1447  L 2688 1575  L 2106 1575  z M 3816 1997  L 3816 0  L 2688 0  L 2688 519  Q 2463 200 2181 54  Q 1900 -91 1497 -91  Q 953 -91 614 226  Q 275 544 275 1050  Q 275 1666 698 1953  Q 1122 2241 2028 2241  L 2688 2241  L 2688 2328  Q 2688 2594 2478 2717  Q 2269 2841 1825 2841  Q 1466 2841 1156 2769  Q 847 2697 581 2553  L 581 3406  Q 941 3494 1303 3539  Q 1666 3584 2028 3584  Q 2975 3584 3395 3211  Q 3816 2838 3816 1997  z "
               transform="scale(0.015625)" />
            <path
               id="DejaVuSans-Bold-46"
               d="M 588 4666  L 3834 4666  L 3834 3756  L 1791 3756  L 1791 2888  L 3713 2888  L 3713 1978  L 1791 1978  L 1791 0  L 588 0  L 588 4666  z "
               transform="scale(0.015625)" />
            <path
               id="DejaVuSans-Bold-73"
               d="M 3272 3391  L 3272 2541  Q 2913 2691 2578 2766  Q 2244 2841 1947 2841  Q 1628 2841 1473 2761  Q 1319 2681 1319 2516  Q 1319 2381 1436 2309  Q 1553 2238 1856 2203  L 2053 2175  Q 2913 2066 3209 1816  Q 3506 1566 3506 1031  Q 3506 472 3093 190  Q 2681 -91 1863 -91  Q 1516 -91 1145 -36  Q 775 19 384 128  L 384 978  Q 719 816 1070 734  Q 1422 653 1784 653  Q 2113 653 2278 743  Q 2444 834 2444 1013  Q 2444 1163 2330 1236  Q 2216 1309 1875 1350  L 1678 1375  Q 931 1469 631 1722  Q 331 1975 331 2491  Q 331 3047 712 3315  Q 1094 3584 1881 3584  Q 2191 3584 2531 3537  Q 2872 3491 3272 3391  z "
               transform="scale(0.015625)" />
            <path
               id="DejaVuSans-Bold-28"
               d="M 2413 -844  L 1484 -844  Q 1006 -72 778 623  Q 550 1319 550 2003  Q 550 2688 779 3389  Q 1009 4091 1484 4856  L 2413 4856  Q 2013 4116 1813 3408  Q 1613 2700 1613 2009  Q 1613 1319 1811 609  Q 2009 -100 2413 -844  z "
               transform="scale(0.015625)" />
            <path
               id="DejaVuSans-Bold-4d"
               d="M 588 4666  L 2119 4666  L 3181 2169  L 4250 4666  L 5778 4666  L 5778 0  L 4641 0  L 4641 3413  L 3566 897  L 2803 897  L 1728 3413  L 1728 0  L 588 0  L 588 4666  z "
               transform="scale(0.015625)" />
            <path
               id="DejaVuSans-Bold-6f"
               d="M 2203 2784  Q 1831 2784 1636 2517  Q 1441 2250 1441 1747  Q 1441 1244 1636 976  Q 1831 709 2203 709  Q 2569 709 2762 976  Q 2956 1244 2956 1747  Q 2956 2250 2762 2517  Q 2569 2784 2203 2784  z M 2203 3584  Q 3106 3584 3614 3096  Q 4122 2609 4122 1747  Q 4122 884 3614 396  Q 3106 -91 2203 -91  Q 1297 -91 786 396  Q 275 884 275 1747  Q 275 2609 786 3096  Q 1297 3584 2203 3584  z "
               transform="scale(0.015625)" />
            <path
               id="DejaVuSans-Bold-32"
               d="M 1844 884  L 3897 884  L 3897 0  L 506 0  L 506 884  L 2209 2388  Q 2438 2594 2547 2791  Q 2656 2988 2656 3200  Q 2656 3528 2436 3728  Q 2216 3928 1850 3928  Q 1569 3928 1234 3808  Q 900 3688 519 3450  L 519 4475  Q 925 4609 1322 4679  Q 1719 4750 2100 4750  Q 2938 4750 3402 4381  Q 3866 4013 3866 3353  Q 3866 2972 3669 2642  Q 3472 2313 2841 1759  L 1844 884  z "
               transform="scale(0.015625)" />
            <path
               id="DejaVuSans-Bold-29"
               d="M 513 -844  Q 913 -100 1113 609  Q 1313 1319 1313 2009  Q 1313 2700 1113 3408  Q 913 4116 513 4856  L 1441 4856  Q 1916 4091 2145 3389  Q 2375 2688 2375 2003  Q 2375 1319 2147 623  Q 1919 -72 1441 -844  L 513 -844  z "
               transform="scale(0.015625)" />
          </defs>
          <use
             xlink:href="#DejaVuSans-Bold-50"
             id="use72" />
          <use
             xlink:href="#DejaVuSans-Bold-65"
             x="73.291016"
             id="use73" />
          <use
             xlink:href="#DejaVuSans-Bold-72"
             x="141.113281"
             id="use74" />
          <use
             xlink:href="#DejaVuSans-Bold-66"
             x="190.429688"
             id="use75" />
          <use
             xlink:href="#DejaVuSans-Bold-69"
             x="233.935547"
             id="use76" />
          <use
             xlink:href="#DejaVuSans-Bold-6c"
             x="268.212891"
             id="use77" />
          <use
             xlink:href="#DejaVuSans-Bold-20"
             x="302.490234"
             id="use78" />
          <use
             xlink:href="#DejaVuSans-Bold-64"
             x="337.304688"
             id="use79" />
          <use
             xlink:href="#DejaVuSans-Bold-65"
             x="408.886719"
             id="use80" />
          <use
             xlink:href="#DejaVuSans-Bold-20"
             x="476.708984"
             id="use81" />
          <use
             xlink:href="#DejaVuSans-Bold-6c"
             x="511.523438"
             id="use82" />
          <use
             xlink:href="#DejaVuSans-Bold-61"
             x="545.800781"
             id="use83" />
          <use
             xlink:href="#DejaVuSans-Bold-20"
             x="613.28125"
             id="use84" />
          <use
             xlink:href="#DejaVuSans-Bold-46"
             x="648.095703"
             id="use85" />
          <use
             xlink:href="#DejaVuSans-Bold-72"
             x="710.03125"
             id="use86" />
          <use
             xlink:href="#DejaVuSans-Bold-65"
             x="759.347656"
             id="use87" />
          <use
             xlink:href="#DejaVuSans-Bold-73"
             x="827.169922"
             id="use88" />
          <use
             xlink:href="#DejaVuSans-Bold-61"
             x="886.691406"
             id="use89" />
          <use
             xlink:href="#DejaVuSans-Bold-20"
             x="954.171875"
             id="use90" />
          <use
             xlink:href="#DejaVuSans-Bold-28"
             x="988.986328"
             id="use91" />
          <use
             xlink:href="#DejaVuSans-Bold-4d"
             x="1034.689453"
             id="use92" />
          <use
             xlink:href="#DejaVuSans-Bold-6f"
             x="1134.201172"
             id="use93" />
          <use
             xlink:href="#DejaVuSans-Bold-64"
             x="1202.902344"
             id="use94" />
          <use
             xlink:href="#DejaVuSans-Bold-65"
             x="1274.484375"
             id="use95" />
          <use
             xlink:href="#DejaVuSans-Bold-6c"
             x="1342.306641"
             id="use96" />
          <use
             xlink:href="#DejaVuSans-Bold-6f"
             x="1376.583984"
             id="use97" />
          <use
             xlink:href="#DejaVuSans-Bold-20"
             x="1445.285156"
             id="use98" />
          <use
             xlink:href="#DejaVuSans-Bold-32"
             x="1480.099609"
             id="use99" />
          <use
             xlink:href="#DejaVuSans-Bold-29"
             x="1549.679688"
             id="use100" />
        </g>
      </g>
      <g
         id="legend_1">
        <g
           id="patch_7">
          <path
             d="M 250.607092 61.594062  L 400.282092 61.594062  Q 402.282092 61.594062 402.282092 59.594062  L 402.282092 30.837812  Q 402.282092 28.837812 400.282092 28.837812  L 250.607092 28.837812  Q 248.607092 28.837812 248.607092 30.837812  L 248.607092 59.594062  Q 248.607092 61.594062 250.607092 61.594062  z "
             style="fill: #ffffff; opacity: 0.8; stroke: #cccccc; stroke-linejoin: miter"
             id="path100" />
        </g>
        <g
           id="line2d_25">
          <path
             d="M 252.607092 36.93625  L 262.607092 36.93625  L 272.607092 36.93625  "
             style="fill: none; stroke: #00a8ff; stroke-width: 3; stroke-linecap: square"
             id="path101" />
        </g>
        <g
           id="text_15">
          <!-- y = -0.3(x-1)³ + 2 -->
          <g
             transform="translate(280.607092 40.43625) scale(0.1 -0.1)"
             id="g118">
            <defs
               id="defs101">
              <path
                 id="DejaVuSans-3d"
                 d="M 678 2906  L 4684 2906  L 4684 2381  L 678 2381  L 678 2906  z M 678 1631  L 4684 1631  L 4684 1100  L 678 1100  L 678 1631  z "
                 transform="scale(0.015625)" />
              <path
                 id="DejaVuSans-2d"
                 d="M 313 2009  L 1997 2009  L 1997 1497  L 313 1497  L 313 2009  z "
                 transform="scale(0.015625)" />
              <path
                 id="DejaVuSans-33"
                 d="M 2597 2516  Q 3050 2419 3304 2112  Q 3559 1806 3559 1356  Q 3559 666 3084 287  Q 2609 -91 1734 -91  Q 1441 -91 1130 -33  Q 819 25 488 141  L 488 750  Q 750 597 1062 519  Q 1375 441 1716 441  Q 2309 441 2620 675  Q 2931 909 2931 1356  Q 2931 1769 2642 2001  Q 2353 2234 1838 2234  L 1294 2234  L 1294 2753  L 1863 2753  Q 2328 2753 2575 2939  Q 2822 3125 2822 3475  Q 2822 3834 2567 4026  Q 2313 4219 1838 4219  Q 1578 4219 1281 4162  Q 984 4106 628 3988  L 628 4550  Q 988 4650 1302 4700  Q 1616 4750 1894 4750  Q 2613 4750 3031 4423  Q 3450 4097 3450 3541  Q 3450 3153 3228 2886  Q 3006 2619 2597 2516  z "
                 transform="scale(0.015625)" />
              <path
                 id="DejaVuSans-b3"
                 d="M 1638 3500  Q 1925 3444 2083 3273  Q 2241 3103 2241 2847  Q 2241 2459 1944 2250  Q 1647 2041 1094 2041  Q 916 2041 720 2073  Q 525 2106 306 2169  L 306 2547  Q 469 2463 655 2422  Q 841 2381 1050 2381  Q 1391 2381 1578 2504  Q 1766 2628 1766 2847  Q 1766 3078 1592 3197  Q 1419 3316 1081 3316  L 813 3316  L 813 3653  L 1106 3653  Q 1400 3653 1551 3751  Q 1703 3850 1703 4038  Q 1703 4219 1547 4314  Q 1391 4409 1094 4409  Q 969 4409 809 4381  Q 650 4353 397 4281  L 397 4641  Q 625 4694 825 4722  Q 1025 4750 1197 4750  Q 1647 4750 1911 4565  Q 2175 4381 2175 4072  Q 2175 3856 2034 3706  Q 1894 3556 1638 3500  z "
                 transform="scale(0.015625)" />
              <path
                 id="DejaVuSans-2b"
                 d="M 2944 4013  L 2944 2272  L 4684 2272  L 4684 1741  L 2944 1741  L 2944 0  L 2419 0  L 2419 1741  L 678 1741  L 678 2272  L 2419 2272  L 2419 4013  L 2944 4013  z "
                 transform="scale(0.015625)" />
            </defs>
            <use
               xlink:href="#DejaVuSans-79"
               id="use101" />
            <use
               xlink:href="#DejaVuSans-20"
               x="59.179688"
               id="use102" />
            <use
               xlink:href="#DejaVuSans-3d"
               x="90.966797"
               id="use103" />
            <use
               xlink:href="#DejaVuSans-20"
               x="174.755859"
               id="use104" />
            <use
               xlink:href="#DejaVuSans-2d"
               x="206.542969"
               id="use105" />
            <use
               xlink:href="#DejaVuSans-30"
               x="242.626953"
               id="use106" />
            <use
               xlink:href="#DejaVuSans-2e"
               x="306.25"
               id="use107" />
            <use
               xlink:href="#DejaVuSans-33"
               x="338.037109"
               id="use108" />
            <use
               xlink:href="#DejaVuSans-28"
               x="401.660156"
               id="use109" />
            <use
               xlink:href="#DejaVuSans-78"
               x="440.673828"
               id="use110" />
            <use
               xlink:href="#DejaVuSans-2d"
               x="499.853516"
               id="use111" />
            <use
               xlink:href="#DejaVuSans-31"
               x="535.9375"
               id="use112" />
            <use
               xlink:href="#DejaVuSans-29"
               x="599.560547"
               id="use113" />
            <use
               xlink:href="#DejaVuSans-b3"
               x="638.574219"
               id="use114" />
            <use
               xlink:href="#DejaVuSans-20"
               x="678.662109"
               id="use115" />
            <use
               xlink:href="#DejaVuSans-2b"
               x="710.449219"
               id="use116" />
            <use
               xlink:href="#DejaVuSans-20"
               x="794.238281"
               id="use117" />
            <use
               xlink:href="#DejaVuSans-32"
               x="826.025391"
               id="use118" />
          </g>
        </g>
        <g
           id="line2d_26">
          <path
             d="M 252.607092 52.014375  L 262.607092 52.014375  L 272.607092 52.014375  "
             style="fill: none; stroke-dasharray: 7.4,3.2; stroke-dashoffset: 0; stroke: #ff3333; stroke-width: 2"
             id="path118" />
        </g>
        <g
           id="text_16">
          <!-- Eje de revolución (y=0) -->
          <g
             transform="translate(280.607092 55.514375) scale(0.1 -0.1)"
             id="g141">
            <defs
               id="defs118">
              <path
                 id="DejaVuSans-45"
                 d="M 628 4666  L 3578 4666  L 3578 4134  L 1259 4134  L 1259 2753  L 3481 2753  L 3481 2222  L 1259 2222  L 1259 531  L 3634 531  L 3634 0  L 628 0  L 628 4666  z "
                 transform="scale(0.015625)" />
              <path
                 id="DejaVuSans-6a"
                 d="M 603 3500  L 1178 3500  L 1178 -63  Q 1178 -731 923 -1031  Q 669 -1331 103 -1331  L -116 -1331  L -116 -844  L 38 -844  Q 366 -844 484 -692  Q 603 -541 603 -63  L 603 3500  z M 603 4863  L 1178 4863  L 1178 4134  L 603 4134  L 603 4863  z "
                 transform="scale(0.015625)" />
              <path
                 id="DejaVuSans-65"
                 d="M 3597 1894  L 3597 1613  L 953 1613  Q 991 1019 1311 708  Q 1631 397 2203 397  Q 2534 397 2845 478  Q 3156 559 3463 722  L 3463 178  Q 3153 47 2828 -22  Q 2503 -91 2169 -91  Q 1331 -91 842 396  Q 353 884 353 1716  Q 353 2575 817 3079  Q 1281 3584 2069 3584  Q 2775 3584 3186 3129  Q 3597 2675 3597 1894  z M 3022 2063  Q 3016 2534 2758 2815  Q 2500 3097 2075 3097  Q 1594 3097 1305 2825  Q 1016 2553 972 2059  L 3022 2063  z "
                 transform="scale(0.015625)" />
              <path
                 id="DejaVuSans-72"
                 d="M 2631 2963  Q 2534 3019 2420 3045  Q 2306 3072 2169 3072  Q 1681 3072 1420 2755  Q 1159 2438 1159 1844  L 1159 0  L 581 0  L 581 3500  L 1159 3500  L 1159 2956  Q 1341 3275 1631 3429  Q 1922 3584 2338 3584  Q 2397 3584 2469 3576  Q 2541 3569 2628 3553  L 2631 2963  z "
                 transform="scale(0.015625)" />
              <path
                 id="DejaVuSans-76"
                 d="M 191 3500  L 800 3500  L 1894 563  L 2988 3500  L 3597 3500  L 2284 0  L 1503 0  L 191 3500  z "
                 transform="scale(0.015625)" />
              <path
                 id="DejaVuSans-6c"
                 d="M 603 4863  L 1178 4863  L 1178 0  L 603 0  L 603 4863  z "
                 transform="scale(0.015625)" />
              <path
                 id="DejaVuSans-63"
                 d="M 3122 3366  L 3122 2828  Q 2878 2963 2633 3030  Q 2388 3097 2138 3097  Q 1578 3097 1268 2742  Q 959 2388 959 1747  Q 959 1106 1268 751  Q 1578 397 2138 397  Q 2388 397 2633 464  Q 2878 531 3122 666  L 3122 134  Q 2881 22 2623 -34  Q 2366 -91 2075 -91  Q 1284 -91 818 406  Q 353 903 353 1747  Q 353 2603 823 3093  Q 1294 3584 2113 3584  Q 2378 3584 2631 3529  Q 2884 3475 3122 3366  z "
                 transform="scale(0.015625)" />
              <path
                 id="DejaVuSans-f3"
                 d="M 1959 3097  Q 1497 3097 1228 2736  Q 959 2375 959 1747  Q 959 1119 1226 758  Q 1494 397 1959 397  Q 2419 397 2687 759  Q 2956 1122 2956 1747  Q 2956 2369 2687 2733  Q 2419 3097 1959 3097  z M 1959 3584  Q 2709 3584 3137 3096  Q 3566 2609 3566 1747  Q 3566 888 3137 398  Q 2709 -91 1959 -91  Q 1206 -91 779 398  Q 353 888 353 1747  Q 353 2609 779 3096  Q 1206 3584 1959 3584  z M 2394 5119  L 3016 5119  L 1998 3944  L 1519 3944  L 2394 5119  z "
                 transform="scale(0.015625)" />
            </defs>
            <use
               xlink:href="#DejaVuSans-45"
               id="use119" />
            <use
               xlink:href="#DejaVuSans-6a"
               x="63.183594"
               id="use120" />
            <use
               xlink:href="#DejaVuSans-65"
               x="90.966797"
               id="use121" />
            <use
               xlink:href="#DejaVuSans-20"
               x="152.490234"
               id="use122" />
            <use
               xlink:href="#DejaVuSans-64"
               x="184.277344"
               id="use123" />
            <use
               xlink:href="#DejaVuSans-65"
               x="247.753906"
               id="use124" />
            <use
               xlink:href="#DejaVuSans-20"
               x="309.277344"
               id="use125" />
            <use
               xlink:href="#DejaVuSans-72"
               x="341.064453"
               id="use126" />
            <use
               xlink:href="#DejaVuSans-65"
               x="379.927734"
               id="use127" />
            <use
               xlink:href="#DejaVuSans-76"
               x="441.451172"
               id="use128" />
            <use
               xlink:href="#DejaVuSans-6f"
               x="500.630859"
               id="use129" />
            <use
               xlink:href="#DejaVuSans-6c"
               x="561.8125"
               id="use130" />
            <use
               xlink:href="#DejaVuSans-75"
               x="589.595703"
               id="use131" />
            <use
               xlink:href="#DejaVuSans-63"
               x="652.974609"
               id="use132" />
            <use
               xlink:href="#DejaVuSans-69"
               x="707.955078"
               id="use133" />
            <use
               xlink:href="#DejaVuSans-f3"
               x="735.738281"
               id="use134" />
            <use
               xlink:href="#DejaVuSans-6e"
               x="796.919922"
               id="use135" />
            <use
               xlink:href="#DejaVuSans-20"
               x="860.298828"
               id="use136" />
            <use
               xlink:href="#DejaVuSans-28"
               x="892.085938"
               id="use137" />
            <use
               xlink:href="#DejaVuSans-79"
               x="931.099609"
               id="use138" />
            <use
               xlink:href="#DejaVuSans-3d"
               x="990.279297"
               id="use139" />
            <use
               xlink:href="#DejaVuSans-30"
               x="1074.068359"
               id="use140" />
            <use
               xlink:href="#DejaVuSans-29"
               x="1137.691406"
               id="use141" />
          </g>
        </g>
      </g>
    </g>
  </g>
  <defs
     id="defs141">
    <clipPath
       id="p02277e7ca7">
      <rect
         x="45.716875"
         y="23.837812"
         width="361.565217"
         height="332.64"
         id="rect141" />
    </clipPath>
  </defs>
</svg>
